<svg width="166" height="32" viewBox="0 0 166 32" fill="none"
    xmlns="http://www.w3.org/2000/svg">
    <path d="M18.2857 21.7143C15.1298 21.7143 12.5714 19.1559 12.5714 16C12.5714 12.8441 15.1298 10.2857 18.2857 10.2857C21.4416 10.2857 24 12.8441 24 16C24 19.1559 21.4416 21.7143 18.2857 21.7143ZM35.9719 14.1C36.3716 14.7 36.5714 15.3 36.5714 16C36.5714 16.7 36.3716 17.4 35.9719 17.9L30.4762 27.9C29.9766 28.9 28.5777 28.9 27.9781 28L25.0804 23.5C24.7806 23 24.8806 22.3 25.2803 21.8C26.879 19.9 27.6784 17.4 27.2787 14.6C26.6792 10.8 23.5816 7.6 19.7845 7C13.3895 5.9 7.99375 11.6 9.39266 18.1C9.99219 20.9 12.1905 23.4 14.8884 24.5C16.9867 25.4 18.9852 25.4 20.7838 24.9C21.2834 24.7 21.9828 25 22.2826 25.5L24.9805 29.8C25.58 30.7 24.8806 32 23.7814 32H10.292C8.99297 32 7.89383 31.3 7.2943 30.2L0.599532 17.9C0.199844 17.4 0 16.7 0 16C0 15.3 0.199844 14.7 0.599532 14.1L7.2943 1.8C7.89383 0.7 8.99297 0 10.292 0H26.2795C27.5785 0 28.6776 0.7 29.2771 1.8L35.9719 14.1Z" fill="#6666FF"/>
    <path d="M48.277 23.8791H45.0729V10.3104H48.277V23.8791ZM44.5714 5.54608C44.5714 4.37589 45.5187 3.42859 46.661 3.42859C47.8312 3.42859 48.7785 4.37589 48.7785 5.54608C48.7785 6.71627 47.8312 7.63571 46.661 7.63571C45.5187 7.63571 44.5714 6.71627 44.5714 5.54608ZM58.363 12.8737C56.3848 12.8737 54.6295 14.3504 54.6295 17.0808C54.6295 19.8113 56.3848 21.3437 58.4187 21.3437C60.5362 21.3437 61.5113 19.867 61.8178 18.8361L64.6597 19.867C64.0189 21.9845 61.985 24.297 58.4187 24.297C54.4345 24.297 51.3975 21.2044 51.3975 17.0808C51.3975 12.9016 54.4345 9.89251 58.3351 9.89251C61.985 9.89251 63.991 12.1772 64.5483 14.3504L61.6507 15.4091C61.3442 14.2111 60.4247 12.8737 58.363 12.8737ZM73.2133 21.3994C75.2193 21.3994 77.0025 19.9227 77.0025 17.0808C77.0025 14.2668 75.2193 12.818 73.2133 12.818C71.2351 12.818 69.4241 14.2668 69.4241 17.0808C69.4241 19.8949 71.2351 21.3994 73.2133 21.3994ZM73.2133 9.89251C77.2811 9.89251 80.2623 12.9294 80.2623 17.0808C80.2623 21.2601 77.2811 24.297 73.2133 24.297C69.1733 24.297 66.1921 21.2601 66.1921 17.0808C66.1921 12.9294 69.1733 9.89251 73.2133 9.89251ZM86.6148 16.05V23.8791H83.3828V10.3104H86.5312V12.1215C87.4228 10.5612 89.0388 9.92037 90.5433 9.92037C93.8588 9.92037 95.447 12.3165 95.447 15.2977V23.8791H92.215V15.8549C92.215 14.1832 91.4627 12.8459 89.4288 12.8459C87.5899 12.8459 86.6148 14.2668 86.6148 16.05ZM98.1774 20.2014L100.991 19.4212C101.103 20.6471 102.022 21.7338 103.75 21.7338C105.087 21.7338 105.784 21.0093 105.784 20.1735C105.784 19.4491 105.282 18.8919 104.196 18.669L102.189 18.2232C99.7934 17.6938 98.5396 16.1335 98.5396 14.2668C98.5396 11.8986 100.713 9.89251 103.527 9.89251C107.316 9.89251 108.542 12.3443 108.765 13.6817L106.034 14.4618C105.923 13.6817 105.338 12.4279 103.527 12.4279C102.385 12.4279 101.577 13.1523 101.577 13.9882C101.577 14.7126 102.106 15.242 102.942 15.4091L105.004 15.8271C107.567 16.3843 108.904 17.9446 108.904 19.9506C108.904 22.0124 107.232 24.297 103.778 24.297C99.8491 24.297 98.3446 21.7338 98.1774 20.2014ZM117.851 12.8737C115.872 12.8737 114.117 14.3504 114.117 17.0808C114.117 19.8113 115.872 21.3437 117.906 21.3437C120.024 21.3437 120.999 19.867 121.305 18.8361L124.147 19.867C123.507 21.9845 121.473 24.297 117.906 24.297C113.922 24.297 110.885 21.2044 110.885 17.0808C110.885 12.9016 113.922 9.89251 117.823 9.89251C121.473 9.89251 123.479 12.1772 124.036 14.3504L121.138 15.4091C120.832 14.2111 119.912 12.8737 117.851 12.8737ZM132.701 21.3994C134.707 21.3994 136.49 19.9227 136.49 17.0808C136.49 14.2668 134.707 12.818 132.701 12.818C130.723 12.818 128.912 14.2668 128.912 17.0808C128.912 19.8949 130.723 21.3994 132.701 21.3994ZM132.701 9.89251C136.769 9.89251 139.75 12.9294 139.75 17.0808C139.75 21.2601 136.769 24.297 132.701 24.297C128.661 24.297 125.68 21.2601 125.68 17.0808C125.68 12.9294 128.661 9.89251 132.701 9.89251ZM151.533 22.3746C150.864 23.6005 149.276 24.2692 147.688 24.2692C144.456 24.2692 142.561 21.8731 142.561 18.864V10.3104H145.793V18.2789C145.793 19.9506 146.573 21.3716 148.524 21.3716C150.39 21.3716 151.365 20.1178 151.365 18.3346V10.3104H154.597V21.3994C154.597 22.5139 154.681 23.3776 154.737 23.8791H151.644C151.588 23.5726 151.533 22.9318 151.533 22.3746ZM162.872 6.15904V10.3104H165.686V13.1802H162.872V19.477C162.872 20.675 163.402 21.1765 164.6 21.1765C165.046 21.1765 165.575 21.0929 165.714 21.0651V23.7398C165.519 23.8234 164.906 24.0463 163.736 24.0463C161.229 24.0463 159.668 22.5417 159.668 20.0063V13.1802H157.161V10.3104H157.857C159.306 10.3104 159.947 9.391 159.947 8.19295V6.15904H162.872Z" fill="#161A21"/>
</svg>
